<svg xmlns:xlink="http://www.w3.org/1999/xlink" xmlns="http://www.w3.org/2000/svg" height="75" width="213" viewBox="0 0 213 75"><span data-v-dc505058="" class="captcha-img"><svg xmlns:xlink="http://www.w3.org/1999/xlink" xmlns="http://www.w3.org/2000/svg" height="75" width="213" viewBox="0,0,213,75"><path d="M41.256998 47.889569Q39.376796 47.812826 37.688451 48.388398Q38.225651 44.743107 38.340766 41.596646Q38.45588 38.526928 38.225651 34.843266Q36.805907 34.459551 36.038477 34.075837L35.654762 31.04449Q36.422192 31.696805 38.033794 32.272377Q37.803565 30.123574 37.381479 27.360828Q39.683768 28.051514 41.333741 27.898029L41.218627 32.540977Q42.638371 32.464234 43.981373 31.965405Q43.943002 32.886321 43.712773 34.651409Q42.177914 34.996752 41.141884 34.996752V41.481532Q41.180255 45.702394 41.256998 47.889569zM44.403459 31.389833Q44.134859 31.504948 43.520915 31.735176L43.90463 28.934058Q43.098829 29.24103 41.679085 29.471259Q41.679085 28.780573 41.83257 27.399199Q41.218627 27.475942 40.643055 27.475942Q38.494252 27.475942 36.844278 26.746884Q37.343107 29.24103 37.611708 31.735176Q36.729164 31.389833 35.194305 30.353803Q35.539648 31.658433 35.769877 34.382808Q36.230335 34.613037 37.41985 35.035123Q37.458222 35.687439 37.496593 37.107183L37.880308 37.145555L37.995423 37.183926Q38.033794 38.411814 38.033794 39.601329Q38.033794 44.589622 37.227993 48.96397Q37.41985 48.848856 39.376796 48.311655Q39.415167 49.002342 39.300053 50.383715Q40.105854 50.306972 40.911655 50.306972Q42.638371 50.306972 44.288345 50.882544Q42.945343 45.126822 43.137201 37.145555L45.554604 36.76184Q45.631347 35.840925 45.70809 34.804895L45.899947 32.771206Q45.324375 33.039807 44.134859 33.500264Q44.441831 32.157263 44.365088 31.811919Q44.326717 31.58169 44.403459 31.389833zM91.703966 49.270942Q89.555163 48.848856 87.367989 48.69537Q85.948244 47.275625 83.26224 43.400106Q81.036695 46.508195 78.619291 48.96397L76.50886 49.347685Q75.434459 49.539542 74.4368 49.808143Q78.657663 45.664023 81.68901 41.519903Q78.389063 37.299041 72.940313 32.464234Q75.20423 33.231664 77.928605 33.65375Q81.382038 36.76184 83.300612 39.486215Q85.449415 36.416497 88.212161 33.883979Q91.281879 33.538636 93.12371 33.039807Q88.557504 36.723469 84.835471 41.328046Q88.212161 46.009366 91.703966 49.270942zM94.581826 32.272377Q91.665594 33.11655 88.097047 33.461893Q85.180814 36.147896 83.454098 38.642042Q82.571554 37.606013 80.92158 35.610696H80.729723Q80.576237 35.572324 80.461122 35.572324Q79.693693 34.728152 78.043719 33.270036Q74.4368 32.732835 71.558939 31.504948Q77.122804 36.339754 81.190181 41.519903Q77.81349 46.201224 73.362399 50.537201Q73.592628 50.422086 77.122804 49.577914Q75.587945 50.920915 73.937971 52.263917Q77.161175 51.343002 80.346008 51.151144Q82.763411 48.887227 84.681985 46.124481Q86.10173 47.889569 87.329617 49.079085Q87.444731 49.079085 87.521474 49.155827H87.713332Q88.979591 50.2686 90.322592 51.343002Q93.929511 51.880202 96.845744 52.916232Q90.629564 48.426769 86.907531 43.208248Q90.591193 38.143213 95.19577 34.037465Q94.236483 34.382808 93.238825 34.613037L91.205136 35.073495Q92.394652 34.152579 94.581826 32.272377zM134.30397 49.270942Q132.15516 48.848856 129.96799 48.69537Q128.54824 47.275625 125.86224 43.400106Q123.63669 46.508195 121.21929 48.96397L119.10886 49.347685Q118.03446 49.539542 117.0368 49.808143Q121.25766 45.664023 124.28901 41.519903Q120.98906 37.299041 115.54031 32.464234Q117.80423 33.231664 120.5286 33.65375Q123.98204 36.76184 125.90061 39.486215Q128.04941 36.416497 130.81216 33.883979Q133.88188 33.538636 135.72371 33.039807Q131.1575 36.723469 127.43547 41.328046Q130.81216 46.009366 134.30397 49.270942zM137.18183 32.272377Q134.26559 33.11655 130.69705 33.461893Q127.78081 36.147896 126.0541 38.642042Q125.17155 37.606013 123.52158 35.610696H123.32972Q123.17624 35.572324 123.06112 35.572324Q122.29369 34.728152 120.64372 33.270036Q117.0368 32.732835 114.15894 31.504948Q119.7228 36.339754 123.79018 41.519903Q120.41349 46.201224 115.9624 50.537201Q116.19263 50.422086 119.7228 49.577914Q118.18794 50.920915 116.53797 52.263917Q119.76118 51.343002 122.94601 51.151144Q125.36341 48.887227 127.28199 46.124481Q128.70173 47.889569 129.92962 49.079085Q130.04473 49.079085 130.12147 49.155827H130.31333Q131.57959 50.2686 132.92259 51.343002Q136.52951 51.880202 139.44574 52.916232Q133.22956 48.426769 129.50753 43.208248Q133.19119 38.143213 137.79577 34.037465Q136.83648 34.382808 135.83882 34.613037L133.80514 35.073495Q134.99465 34.152579 137.18183 32.272377zM171.70463 38.526928Q171.58952 37.299041 169.63257 36.569983Q169.13374 36.378125 168.59654 36.378125Q167.21517 36.378125 166.14077 36.953697Q164.75939 37.682755 164.87451 38.910643Q165.21985 41.750132 165.06636 44.014049Q164.91288 46.469824 164.18382 49.002342Q162.03502 49.501171 160.8455 49.923257Q162.4571 46.277967 162.4571 42.248961Q162.4571 36.76184 159.84784 32.272377Q161.07573 32.771206 163.49313 33.500264Q163.80011 34.229322 164.18382 35.764182Q165.52682 33.65375 169.44071 33.730493Q170.9372 33.768865 171.743 33.883979Q174.73598 34.267694 174.81272 36.301382Q174.85109 37.222298 174.65923 38.258328Q174.19878 40.790845 174.39063 43.822192Q174.54412 46.700053 175.54178 49.270942Q173.81506 48.848856 172.08835 48.69537Q171.62789 46.316338 171.55114 43.630335Q171.4744 40.867588 171.70463 38.526928zM171.70463 49.040713Q172.51043 49.040713 173.81506 49.270942L174.19878 50.345343Q174.39063 50.844173 174.62086 51.381373Q176.92315 51.803459 179.64753 52.992975Q177.26849 49.846514 176.57781 46.009366Q176.23246 43.860563 176.34758 40.13853Q176.34758 39.831558 176.38595 39.025757Q176.46269 38.411814 176.38595 37.912984Q176.27084 36.224639 175.15806 35.72581Q175.00458 34.881638 174.23715 34.267694Q172.51043 33.231664 169.44071 33.308407Q167.56051 33.346778 166.71634 33.538636Q165.25822 33.883979 164.29893 34.804895Q164.18382 34.267694 163.80011 33.231664Q160.96062 32.540977 159.11879 31.543319Q162.1885 36.454868 162.1885 42.248961Q162.1885 46.661681 160.26993 50.537201Q160.96062 50.230229 162.26525 49.846514Q161.76642 51.112773 161.22922 52.110431Q162.64896 51.649974 166.21751 51.074401Q167.21517 45.894252 167.10005 41.021074Q167.06168 40.176902 168.2512 39.447843Q169.28723 38.795528 170.4 38.680414Q170.86046 38.642042 171.28254 38.8339Q171.12906 41.404789 171.16743 43.975678Q171.2058 46.508195 171.70463 49.040713z"></path></svg></span></svg>