<svg xmlns:xlink="http://www.w3.org/1999/xlink" xmlns="http://www.w3.org/2000/svg" height="75" width="213" viewBox="0 0 213 75"><span data-v-dc505058="" class="captcha-img"><svg xmlns:xlink="http://www.w3.org/1999/xlink" xmlns="http://www.w3.org/2000/svg" height="75" width="213" viewBox="0,0,213,75"><path d="M44.000559 38.526928Q44.077302 37.068812 43.252315 36.147896Q42.427328 35.226981 40.969212 35.265352Q38.628552 35.342095 37.784379 37.490898Q37.515779 38.296699 37.477408 38.987386Q37.247179 43.860563 36.326263 48.234912Q34.637918 48.772113 32.757716 49.769771Q35.060005 42.747791 34.791404 35.380467Q34.484432 27.9364 31.913543 21.067905Q33.717003 22.410907 35.750691 23.101594Q37.208807 28.934058 37.400665 34.843266Q38.820409 32.771206 41.544784 32.847949Q46.648191 32.924692 46.763305 38.335071Q46.916791 44.090792 48.298165 48.772113Q46.417962 47.92794 44.652874 47.736083Q44.115673 44.436136 44.000559 38.526928zM44.307531 48.043055Q45.381932 48.196541 46.494705 48.465141Q46.533077 48.618627 47.070277 50.613944Q50.063253 51.573231 52.096941 53.031347Q49.372566 47.198882 48.835365 40.829217Q48.528393 37.107183 47.108649 35.533953Q47.070277 35.418838 46.417962 34.958381Q46.187733 34.459551 45.535418 33.692122L45.57379 33.65375Q44.691246 32.771206 41.544784 32.502606Q40.815726 32.502606 39.395982 32.847949Q39.165753 27.9364 38.820409 25.403882Q38.05298 25.288768 36.556492 24.981796Q36.403006 24.252738 36.134406 22.75625Q33.141431 21.758592 31.261228 20.185361Q34.215832 27.360828 34.484432 35.226981Q34.791404 43.093134 32.220515 50.498829Q33.141431 49.884886 34.292575 49.386056L33.563517 51.688345Q36.709978 50.345343 38.705295 50.153486Q39.280867 44.704736 39.472725 40.714102Q39.587839 38.872271 41.544784 37.759498Q42.043614 37.490898 42.580814 37.52927Q42.7343 37.52927 43.079643 37.567641L43.540101 37.682755Q43.540101 38.06647 43.655216 38.526928Q43.808702 44.589622 44.307531 48.043055zM81.593081 37.490898Q81.324481 37.452527 81.017509 37.452527Q79.674507 37.452527 78.216391 38.296699Q76.873389 39.409472 76.873389 41.328046Q76.873389 44.781479 78.408248 46.124481Q79.367535 47.313997 81.669824 47.313997Q81.938424 47.352368 82.245396 47.352368Q83.972113 47.352368 85.123257 45.702394Q86.159287 44.167535 86.082544 42.364076Q86.159287 41.903618 86.159287 41.481532Q86.159287 39.678072 84.777914 38.507742Q83.396541 37.337412 81.593081 37.490898zM86.120915 47.736083Q85.123257 49.693028 81.362852 49.808143Q77.909419 49.884886 76.297817 48.273283Q74.839701 46.508195 74.0339 41.673389Q73.726928 39.908301 73.726928 38.642042Q73.726928 36.838583 74.455986 35.764182Q75.837359 34.382808 78.830335 34.382808Q85.2 34.382808 87.118574 36.992069Q87.310431 36.186268 87.732518 34.574666Q88.998776 34.267694 91.454551 33.461893Q88.998776 39.140872 88.768547 45.510537Q88.538319 51.726717 90.687121 57.597553Q88.960405 56.983609 87.156945 56.715009Q86.23603 52.724375 86.120915 47.736083zM86.888345 57.021981Q87.617403 57.175466 89.037148 57.482438Q89.267377 58.211496 89.842949 59.631241Q92.452209 60.360299 94.754498 61.664929Q90.687121 55.026664 90.687121 46.431453Q90.687121 40.023416 93.181267 34.190951Q92.490581 34.497923 91.109208 35.150238Q91.416179 34.344437 92.068495 32.771206Q90.533635 33.346778 87.310431 34.229322Q87.195317 34.804895 86.888345 35.99441Q84.854657 34.075837 78.676849 33.922351Q75.453645 33.845608 74.072271 35.342095Q73.304842 36.49324 73.343213 38.411814Q73.458328 41.44316 74.455986 45.241937Q75.108301 47.65934 76.029217 48.618627L76.412931 49.002342Q77.602447 51.803459 83.089569 52.033688Q84.125599 52.07206 85.96743 51.765088Q86.274401 54.719692 86.888345 57.021981zM83.473283 39.793187Q84.586056 39.831558 85.430229 40.13853Q85.622086 40.675731 85.737201 41.289674Q85.813944 41.826875 85.737201 42.440819Q85.737201 44.359393 84.701171 45.664023Q83.550026 47.122139 81.669824 46.930282Q80.365194 46.930282 79.405907 46.508195Q79.060563 45.702394 79.060563 44.474507Q79.022192 44.129164 79.022192 43.822192Q79.022192 42.057104 80.365194 40.886774Q81.708195 39.716444 83.473283 39.793187zM129.143 37.107183Q127.95349 36.339754 127.30117 36.378125Q125.9198 36.454868 124.86458 37.471712Q123.80937 38.488557 123.92448 39.86993Q124.23145 44.244278 123.34891 48.810484Q121.12336 49.270942 120.01059 49.808143Q121.50708 45.58728 121.27685 41.097817Q121.04662 36.569983 119.3199 32.464234Q120.47105 33.154921 122.77334 33.807236L123.34891 36.531611Q124.0396 33.615379 128.3372 33.615379Q128.72092 33.538636 129.02789 33.538636Q130.33252 33.538636 131.59878 34.229322Q130.29415 35.610696 129.143 37.107183zM130.86972 39.064129Q131.75226 37.874613 133.44061 35.418838Q132.98015 35.073495 131.44529 34.804895Q131.79063 34.497923 132.25109 33.883979Q130.33252 32.963064 128.37557 33.154921Q126.41863 33.346778 125.68957 33.615379Q124.26982 34.037465 123.46402 35.150238L123.08031 33.461893Q120.66291 33.039807 118.66759 31.696805Q120.81639 36.109525 121.04662 41.021074Q121.27685 45.970995 119.51176 50.537201Q120.58616 50.038371 121.46871 49.7314Q121.20011 50.844173 120.70128 51.918574Q123.57914 51.074401 125.72794 50.959287L125.9198 46.393081Q126.03491 44.129164 126.03491 41.865247Q126.03491 40.675731 126.95583 39.697258Q127.87674 38.718785 129.02789 38.642042Q129.64183 38.488557 130.37089 39.179243L130.7546 39.1025zM125.76631 37.260669L125.72794 37.337412V37.299041zM164.29893 40.944331Q164.14545 43.783821 162.95593 48.465141Q161.15247 49.002342 159.54087 49.808143Q162.1885 42.747791 161.9199 35.265352Q161.61293 27.782914 158.50484 20.991162Q160.50016 22.295793 162.38036 22.871365Q164.52916 29.893345 164.52916 36.608354Q164.52916 38.06647 164.45242 39.562958Q165.60357 38.335071 170.86046 33.346778Q171.97323 33.346778 172.97089 33.270036L175.04295 33.078178Q171.89649 36.147896 167.56051 39.946673Q170.9372 42.709419 177.46035 48.580255Q174.73598 47.697711 171.743 47.505854Q169.21048 45.395423 164.29893 40.944331zM174.27552 50.191857Q179.03358 51.03603 182.18004 52.992975Q180.99053 51.688345 178.3429 49.270942Q178.57312 49.347685 178.84173 49.462799Q176.73129 47.429111 174.46738 45.510537L170.01629 41.596646Q175.00458 37.337412 177.46035 34.42118Q176.23246 34.497923 173.73832 34.766523Q175.34992 33.308407 176.04061 32.464234Q173.23949 32.963064 170.74534 32.963064Q169.3256 34.267694 166.56285 36.953697Q166.56285 31.121233 165.56519 25.250397Q164.83614 25.058539 163.33965 24.789939Q163.18616 24.060881 162.7257 22.564393Q160.07807 21.758592 157.81416 20.185361Q161.26759 27.053856 161.61293 35.226981Q161.95827 43.208248 158.92693 50.498829Q159.61761 50.191857 160.96062 49.539542Q160.73039 50.383715 160.07807 51.841831Q162.91756 50.729058 165.06636 50.345343Q165.64194 47.812826 166.14077 43.51522Q168.7884 45.817509 174.27552 50.191857z"></path></svg></span></svg>