<svg xmlns:xlink="http://www.w3.org/1999/xlink" xmlns="http://www.w3.org/2000/svg" height="75" width="213" viewBox="0 0 213 75"><span data-v-884c66b0="" class="captcha-img"><svg xmlns:xlink="http://www.w3.org/1999/xlink" xmlns="http://www.w3.org/2000/svg" height="75" width="213" viewBox="0,0,213,75"><path d="M39.798882 48.848856H38.072166Q34.657104 48.848856 33.697817 46.700053Q34.887333 45.664023 36.345449 44.55125Q36.921021 46.738424 39.798882 46.584938Q40.604683 46.546567 41.640713 46.316338Q42.561629 45.779137 42.484886 44.81985Q42.408143 43.707078 40.604683 43.016391L36.767535 41.481532Q34.426875 40.13853 34.081532 36.569983Q33.889674 34.42118 36.076849 33.845608Q37.036136 33.615379 40.029111 33.615379Q44.94066 33.615379 45.861576 36.147896Q45.209261 36.685097 44.480202 37.145555L43.060458 38.104842Q42.561629 36.186268 39.300053 35.956039Q38.724481 35.99441 37.688451 36.416497Q37.112879 36.76184 37.112879 37.874613Q37.458222 38.949014 39.300053 39.639701Q40.374454 40.023416 43.060458 41.136189Q44.902289 41.980361 45.094146 44.55125Q45.170889 45.203565 45.094146 46.201224Q45.055775 47.083768 44.480202 47.736083Q42.8686 48.848856 39.798882 48.848856zM44.595317 51.458116Q45.516232 51.496488 46.897606 51.189516Q47.972007 50.498829 47.78015 49.270942Q47.703407 48.69537 47.396435 47.083768Q46.859234 44.129164 45.055775 42.901277Q44.518574 41.481532 43.252315 40.752474Q41.986056 40.330387 39.49191 39.371101Q39.645396 38.910643 39.913997 38.795528Q40.52794 38.335071 41.180255 38.296699Q41.986056 38.258328 42.753486 38.526928L42.791857 38.642042L42.8686 38.603671L43.137201 38.680414H43.098829Q44.211602 39.179243 44.403459 40.445502Q45.669718 39.601329 47.588292 37.912984Q47.319692 37.183926 46.322033 35.99441Q45.170889 33.270036 40.029111 33.154921Q36.844278 33.11655 34.848961 33.692122Q33.429217 34.267694 33.659446 36.378125Q33.77456 37.644384 34.695475 39.754815Q35.232676 40.867588 36.268706 41.596646Q36.959393 43.093134 38.264023 43.783821Q39.22331 44.052421 40.182597 44.436136L42.101171 45.203565Q41.755827 46.316338 39.798882 46.201224Q39.376796 46.277967 38.148909 45.970995L38.110537 45.779137L37.995423 45.894252Q37.112879 45.510537 36.460563 44.014049Q34.311761 45.58728 33.198988 46.738424Q33.467588 47.620968 34.503618 48.426769L34.350132 48.580255Q35.808248 50.729058 40.067482 51.112773Q41.333741 51.227887 44.595317 51.458116zM88.077861 48.656998Q86.734859 46.930282 85.430229 43.822192L83.319798 38.680414Q81.708195 42.709419 81.094252 44.014049Q79.636136 46.968653 78.024534 48.887227Q77.640819 48.887227 76.873389 49.002342Q76.873389 41.519903 71.002553 35.533953Q69.237465 33.692122 67.203777 32.195634Q69.083979 32.771206 70.964182 33.078178Q77.065247 38.06647 78.523363 44.359393Q79.444278 42.517562 80.633794 39.294358Q81.976796 35.495581 82.552368 34.190951H83.972113Q84.854657 35.917667 86.044173 39.217615Q87.348803 42.862905 88.001118 44.28265Q89.842949 37.951356 95.368442 33.346778Q96.596329 33.270036 99.359075 32.694463Q90.610378 38.718785 89.420863 48.772113L88.768547 48.656998Q88.423204 48.618627 88.077861 48.656998zM93.181267 51.343002Q92.835924 49.769771 92.835924 48.234912Q92.835924 44.973336 94.255669 41.711761Q96.250986 37.145555 100.39511 34.037465Q99.167218 34.306065 97.287016 34.651409Q99.282333 33.001435 100.58696 32.08052L98.054445 32.540977Q96.826558 32.771206 95.483556 32.924692Q90.265035 37.183926 88.30809 42.248961Q87.655775 40.061787 86.274401 35.764182Q85.96743 35.802553 85.698829 35.802553H85.161629Q85.046514 35.495581 84.240713 33.730493H82.168653Q81.209366 36.569983 79.098935 42.248961Q77.755933 38.526928 74.647843 35.226981Q74.379243 35.226981 74.072271 35.188609L73.496699 35.073495Q72.652527 34.267694 70.849067 32.656092Q67.664234 32.003777 65.975889 31.504948Q76.796646 39.025757 76.412931 49.424428Q76.604789 49.424428 76.969318 49.386056Q77.333847 49.347685 77.525704 49.347685Q77.525704 49.194199 77.717562 51.30463L79.674507 51.151144Q82.283768 48.311655 84.547685 42.517562Q86.044173 46.393081 87.924375 49.079085Q88.231347 49.040713 88.499947 49.059899Q88.768547 49.079085 89.037148 49.079085L91.109208 51.151144zM129.37323 48.96397L126.34188 48.810484Q123.92448 48.69537 123.11868 48.580255Q121.27685 48.234912 120.08733 47.352368Q118.7827 45.932623 118.55247 42.555933Q118.5141 42.057104 118.43736 40.829217Q118.43736 40.40713 118.36062 39.294358Q118.32224 38.450185 118.36062 37.721127Q118.55247 35.764182 119.5885 34.996752Q121.54545 33.845608 126.41863 33.615379Q128.45232 33.500264 129.25812 33.500264Q130.7546 33.500264 132.13598 33.807236Q131.5604 35.073495 131.0232 36.915326Q130.52437 36.992069 130.02555 36.953697Q129.91043 36.915326 129.37323 36.800211L128.41394 36.569983Q127.33954 36.301382 126.7256 36.339754Q121.96754 36.416497 121.35359 39.255986Q121.08499 40.40713 121.16173 41.366417Q121.31522 43.975678 122.56229 45.069265Q123.80937 46.162852 126.41863 46.201224Q127.91511 46.239595 128.64417 45.932623L129.6802 45.433794Q130.2174 45.203565 130.79298 45.126822Q131.0232 46.930282 131.40692 48.234912Q131.17669 48.618627 129.37323 48.96397zM132.63481 51.918574Q133.01852 51.956945 133.86269 52.033688Q134.51501 52.07206 134.86035 51.496488Q133.63246 49.386056 133.13364 47.275625Q132.78829 47.237254 132.32783 47.237254Q131.90575 47.237254 131.52203 47.429111Q131.17669 46.162852 131.0232 44.743107Q130.40926 44.666365 129.18137 45.241937Q127.95349 45.817509 127.45466 45.817509Q126.9942 45.85588 126.38026 45.817509Q125.45934 45.779137 123.46402 45.203565Q123.11868 44.474507 123.15705 43.323363Q123.34891 39.064129 128.3372 38.526928Q129.02789 38.526928 130.40926 38.872271Q131.79063 39.217615 132.51969 39.179243Q132.94178 36.915326 133.63246 35.073495Q133.24875 34.958381 132.86504 34.881638L132.09761 34.804895Q132.28946 34.306065 132.67318 33.423521Q131.13832 33.078178 129.56509 33.078178Q127.14768 33.078178 122.73496 33.461893Q120.77802 33.615379 119.20479 34.613037Q117.9769 35.572324 117.9769 37.490898Q117.9769 37.912984 118.09202 39.140872Q118.16876 40.176902 118.13039 40.790845Q118.16876 42.709419 118.89782 46.469824Q119.28153 47.313997 119.78036 47.812826L120.01059 48.043055H120.04896Q121.08499 50.191857 125.03725 50.805801Q128.22209 51.30463 130.90809 51.573231Q131.71389 51.649974 132.63481 51.918574zM171.97323 48.96397L168.94188 48.810484Q166.52448 48.69537 165.71868 48.580255Q163.87685 48.234912 162.68733 47.352368Q161.3827 45.932623 161.15247 42.555933Q161.1141 42.057104 161.03736 40.829217Q161.03736 40.40713 160.96062 39.294358Q160.92224 38.450185 160.96062 37.721127Q161.15247 35.764182 162.1885 34.996752Q164.14545 33.845608 169.01863 33.615379Q171.05232 33.500264 171.85812 33.500264Q173.3546 33.500264 174.73598 33.807236Q174.1604 35.073495 173.6232 36.915326Q173.12437 36.992069 172.62555 36.953697Q172.51043 36.915326 171.97323 36.800211L171.01394 36.569983Q169.93954 36.301382 169.3256 36.339754Q164.56754 36.416497 163.95359 39.255986Q163.68499 40.40713 163.76173 41.366417Q163.91522 43.975678 165.16229 45.069265Q166.40937 46.162852 169.01863 46.201224Q170.51511 46.239595 171.24417 45.932623L172.2802 45.433794Q172.8174 45.203565 173.39298 45.126822Q173.6232 46.930282 174.00692 48.234912Q173.77669 48.618627 171.97323 48.96397zM175.23481 51.918574Q175.61852 51.956945 176.46269 52.033688Q177.11501 52.07206 177.46035 51.496488Q176.23246 49.386056 175.73364 47.275625Q175.38829 47.237254 174.92783 47.237254Q174.50575 47.237254 174.12203 47.429111Q173.77669 46.162852 173.6232 44.743107Q173.00926 44.666365 171.78137 45.241937Q170.55349 45.817509 170.05466 45.817509Q169.5942 45.85588 168.98026 45.817509Q168.05934 45.779137 166.06402 45.203565Q165.71868 44.474507 165.75705 43.323363Q165.94891 39.064129 170.9372 38.526928Q171.62789 38.526928 173.00926 38.872271Q174.39063 39.217615 175.11969 39.179243Q175.54178 36.915326 176.23246 35.073495Q175.84875 34.958381 175.46504 34.881638L174.69761 34.804895Q174.88946 34.306065 175.27318 33.423521Q173.73832 33.078178 172.16509 33.078178Q169.74768 33.078178 165.33496 33.461893Q163.37802 33.615379 161.80479 34.613037Q160.5769 35.572324 160.5769 37.490898Q160.5769 37.912984 160.69202 39.140872Q160.76876 40.176902 160.73039 40.790845Q160.76876 42.709419 161.49782 46.469824Q161.88153 47.313997 162.38036 47.812826L162.61059 48.043055H162.64896Q163.68499 50.191857 167.63725 50.805801Q170.82209 51.30463 173.50809 51.573231Q174.31389 51.649974 175.23481 51.918574z"></path></svg></span></svg>